<svg xmlns="http://www.w3.org/2000/svg" width="510.686" height="172.007" viewBox="0 0 383.015 129.005"><g fill="#0a2540"><path d="m.215 64.2.3 64.3 191.3.3 191.2.2V0h-383zm378.6 0 .2 59.8h-374V4l186.8.2 186.7.3z"/><path d="M358.815 8.7c-4.1 2.1-3.5 7.3.6 5.7.9-.3 1.6-1.1 1.6-1.7s.7-1.8 1.5-2.7c2.2-2.4-.1-3.1-3.7-1.3m-97.7.6c-.6.8-.7 1.7-.3 2.1s.7 1.3.7 1.9c.1 2.6 9.5-.8 9.5-3.3 0-1.4-2.7-1.3-3.6.1-.5.8-1 .6-1.6-.5-1.1-1.9-3.2-2.1-4.7-.3m-24.4 7.3c-1.3 1.3-.7 4.4.7 4.4q1.5 0 1.8 4.2c.4 6.1 3.1 6.4 5.1.6.9-2.8 1.7-3.8 2.1-2.8.3.8 1 2.8 1.6 4.3.7 1.9 1.6 2.7 2.8 2.5 1.4-.3 1.7-1.4 1.7-6.7q0-6.45-1.2-6.9c-.9-.2-1.3.8-1.4 3l-.1 3.3-1.4-3.3c-.8-1.7-1.9-3.2-2.5-3.2-.5 0-1.5 1.5-2.2 3.2l-1.1 3.3-.6-3c-.5-2.9-3.6-4.6-5.3-2.9m22.9.9c-2.3 2.4-2 3.5 1.2 3.5 4.2 0 5.8 2 3.2 4-2.9 2.2-1.7 5.2 1.9 4.8 1.9-.2 2.7-1 2.9-2.7.6-4.3-.6-6.8-4-7.8l-3.3-1.1 3.5.2c4.9.2 5.1-1.8.2-2.2-2.6-.2-4.5.3-5.6 1.3m17.3.5c-2.1 1.6-2.1 1.9-.6 2 1.4 0 1.6.4.7 1.9-.5 1.1-1 3.4-1 5.1v3.1l5.8-.3 5.7-.3.3-5.5c.3-4.3-.1-5.7-1.4-6.7-2.6-1.9-6.8-1.6-9.5.7m6.9 1.2c.7.7 1.2 2.7 1.2 4.5 0 3.5-1.7 5-4.6 3.9-1.4-.5-1.3-.9.7-2.4 2.3-1.9 1.9-4.2-.7-4.2-1.7 0-1.9-1.6-.1-2.3 1.9-.8 2.2-.8 3.5.5m11.1-1.6c-1.1 1.4-.9 1.9 1.1 3.4l2.4 1.8-2.4 2c-2.1 1.7-2.2 2.2-1.1 3.6 1.8 2.1 4.7 2 6-.2 1-1.6 1.2-1.6 2.6.2.8 1.1 2.1 1.6 3 1.3 2.2-.9 2.2-13.7 0-13.7-1.1 0-1.5 1.2-1.5 4.6 0 3.8-.3 4.5-1.6 4-.9-.3-1.8-.6-2-.6s-.4-1.3-.4-2.8c0-4.7-3.5-6.8-6.1-3.6m21.3 5.1c.3 6.2.5 6.8 2.6 7.1 2.9.4 4.2-2.6 1.9-4.3-1.1-.8-1.7-2.7-1.7-5.4 0-3-.4-4.1-1.5-4.1-1.3 0-1.5 1.2-1.3 6.7m11.5-6.1c-1.3 1.3-.7 4.4.7 4.4q1.5 0 1.8 4.2c.4 6 3.2 6.5 4.9.9 1.4-4.7 2.5-4.5 3.5.5.5 2.8 1 3.5 2.8 3.2 1.9-.3 2.1-.9 2.1-6.7 0-7-2.1-9.9-2.7-3.9l-.4 3.3-1.3-3.3c-.7-1.7-1.7-3.2-2.2-3.2-.6 0-1.5 1.5-2.2 3.2l-1.1 3.3-.6-3c-.5-2.9-3.6-4.6-5.3-2.9"/><path d="M350.215 17.3c-.7.8-.9 3.5-.5 7l.6 5.7h4.8c5.8 0 7.2-1.7 6.7-8.7-.4-6.5-2.8-7-2.8-.6 0 5.2-1.2 7.3-4.2 7.3-2.3 0-2.3-2.6 0-4 1.2-.8 1.4-1.3.4-1.7s-1-.8-.1-1.9.9-1.8-.1-2.9c-1.5-1.8-3.4-1.9-4.8-.2M23.015 64v29h208V35h-208zm35.3-20.6c7.2 3 9.7 10.4 5.5 16.6-3.4 5-6.1 6-16 6h-8.8v17h-6l.2-16.3.3-16.2 2.8-.3c2.7-.3 2.7-.2 2.7 5.2V61h8.5c9.6 0 12.5-1.6 12.5-6.8 0-5.8-3.1-7.2-16.4-7.2-9.6 0-10.6-.2-10.6-1.8 0-1 .3-2.2.7-2.5 1.2-1.3 21.3-.7 24.6.7m155.7 5.6c0 3.6.3 4 2.5 4 2 0 2.5.5 2.5 2.5s-.5 2.5-2.5 2.5h-2.5v10c0 9.7.1 10.1 2.5 11.2 3.7 1.7 3.3 4.8-.7 4.8-5.9 0-6.8-1.9-6.8-14.7 0-10.6-.1-11.3-2-11.3-1.5 0-2-.7-2-2.5s.5-2.5 2-2.5c1.7 0 2-.7 2-4 0-3.6.3-4 2.5-4 2.3 0 2.5.4 2.5 4m-140 6.6v2.6l3.1-2.6c4.1-3.5 7.9-3.5 7.9-.1 0 2-.5 2.5-2.4 2.5-1.3 0-3.5.9-5 2.1-2.5 2-2.6 2.4-2.6 12.5V83h-6V68.7c0-7.9.3-14.7.7-15 .3-.4 1.5-.7 2.5-.7 1.3 0 1.8.7 1.8 2.6m38.1 1.1c6.8 6.8 5.5 20.6-2.5 25.8-3.3 2.2-11.3 2.2-15.4.1-6.1-3.2-8.8-12.8-5.7-20.3 3.2-7.5 6.3-9.4 14.8-9 4.9.3 6.3.8 8.8 3.4m15.9-1.7c0 1.1.3 2 .6 2s1.7-.9 3.1-2c3.4-2.6 9.2-2.6 12.7.1l2.6 2 2.6-2c4.1-3.2 9.8-2.8 13.5.8 2.9 2.9 2.9 3 2.9 15V83h-2.5c-2.5 0-2.5 0-2.5-9.9 0-11.2-.9-14.6-4-15.6-3-.9-7.5 1.2-8.9 4.1-.6 1.4-1.1 6.7-1.1 11.9 0 9.5 0 9.5-2.5 9.5h-2.5V71.6c0-13.1-1-15.3-6.3-14.2-6 1.2-6.7 2.8-6.7 14.8V83h-6V68.7c0-7.9.3-14.7.7-15 1.5-1.5 4.3-.7 4.3 1.3m67-.3c5.8 3.9 7.8 10.1 6 18-1.6 7.1-6.2 11.3-12.6 11.3-2.4 0-5.6-.7-6.9-1.6l-2.5-1.6v4.1c0 3.7-.2 4.1-2.5 4.1h-2.5V54h2.5c1.6 0 2.5.6 2.5 1.6 0 1.3.5 1.2 2.6-.5 3.3-2.6 10-2.8 13.4-.4"/><path d="M96.915 58.3c-2.7 2.1-3.9 5.4-3.9 11.2 0 7.2 2.8 10.5 8.9 10.5 6 0 9.1-4.1 9.1-12.1 0-7-3.2-10.8-9-10.8-1.9 0-4.2.5-5.1 1.2m86.3-.6c-2.3.9-4.2 6.2-4.2 11.8 0 4.6.4 6 2.5 8 4.1 4.2 10.5 3.1 13.3-2.2 1.5-2.8 1.5-10.5.1-13.6-1.7-3.8-7.5-5.7-11.7-4m52.8 6.3v29h13V72.2l10.8-.3c9-.4 11.3-.8 14.4-2.7 5-3.1 7.2-8.9 6.6-17.6-.5-7.8-2.5-11.1-8.8-14.4-4-2-5.8-2.2-20.2-2.2h-15.8zm30.7-16.7q1.8 1.8 1.8 6.3c0 6.7-2.5 8.4-12.1 8.4h-7.4V44.8l8 .4c5.9.2 8.4.8 9.7 2.1m27.4-3.5c-4.2 2.1-6.9 5.6-7.7 9.9l-.6 3.3h5.6c5.1 0 5.7-.2 6.6-2.5 1.5-4 11.1-4.9 13.4-1.2 2.1 3.3-.4 5.1-9 6.5-13.4 2.3-17.4 5.5-17.4 14.2 0 2.3.7 5.4 1.5 6.9 3.3 6.5 14.6 7.9 22.4 2.8l4-2.6.3 2.2c.3 2 1 2.2 6.6 2.5 5 .2 6.2 0 6.2-1.2 0-.8-.4-1.8-1-2.1-.6-.4-1-6.5-1-15.1 0-17.6-.9-20.6-7.2-23.4-5.7-2.6-17.9-2.7-22.7-.2m16.5 30.7c-2.1 3.1-8.5 5.2-11.4 3.6-5.2-2.8-3-9.5 3.5-10.6 2.1-.4 4.9-1 6.3-1.4 2.3-.7 2.5-.5 2.8 2.6.2 2-.4 4.5-1.2 5.8m17.4-31.5c0 .7 2.5 9.1 5.5 18.7l5.6 17.6-1.9 6.8-1.9 6.9h12.2l6.8-24.8c3.7-13.6 6.7-25.1 6.7-25.5s-2.7-.7-5.9-.7h-5.9l-1.8 7c-1 3.8-2.1 7-2.5 7-.3 0-1.5-3-2.5-6.8l-2-6.7-6.2-.3c-4.1-.2-6.2.1-6.2.8"/></g></svg>