<svg xmlns="http://www.w3.org/2000/svg" width="384" height="129"><path fill="#fafafa" d="M0 0h384v129H0Z"/><path fill="#030303" d="M23 35h208v58H23Z"/><path fill="#161616" d="M0 0h384v129H0Zm4 4v120h375V4Z"/><path fill="#030303" d="M236 35h30l9 3 5 6 1 2v15l-4 7-6 3-4 1h-18v21h-13Z"/><path fill="#080808" d="M298 42h15l8 4 3 4 1 32 1 4h-13v-5h-2v2l-8 4h-10l-6-4-2-3V68l5-5 3-2 14-2 4-2-1-5h-10l-2 5h-12l2-9 6-5Z"/><path fill="#040404" d="M328 42h12l4 10v3h2l3-13h12l-1 6-5 20-5 17-2 8h-12l1-7 1-9-8-24Z"/><path fill="#f3f3f4" d="M185 53h8l5 3 3 5v15l-4 6-3 2h-11l-3-2-1 7h-5V54h4l1 3 3-3Z"/><path fill="#ececec" d="M96 53h12l7 6 2 5v8l-4 8-3 3-3 1H95l-5-4-3-6V64l3-6Z"/><path fill="#f9f9f9" d="M123 53h6v3l6-3h8l3 3 4-2 1-1h10l5 5v25h-5l-1-23-2-2h-6l-3 1-1 3-1 21h-5l-1-25h-7l-4 3-1 23h-6Z"/><path fill="#e9eaea" d="M33 42h24l5 3 3 3 1 7-3 7-5 4H39v18h-6V50h6v11l17-1 3-3v-8l-3-1-23-1Z"/><path fill="#030304" d="M98 57h7l4 2 2 5v9l-3 6-3 1h-8l-3-3-1-3V64l2-5Z"/><path fill="#050505" d="M184 57h7l4 4 1 3v9l-2 5-4 2h-7l-4-5V62Z"/><path fill="#f7f7f7" d="M249 45h15l5 5v7l-5 5h-15Z"/><path fill="#f2f2f2" d="M209 45h5v9h5v3h-5l1 22 5 1v4h-8l-3-4V58h-5v-5h5Z"/><path fill="#e2e3e3" d="M69 53h5l1 4 4-4h6v5l-7 2-2 2-1 22h-6Z"/><path fill="#dfdfe0" d="M123 53h6v3l5-2-4 7-1 23h-6Z"/><path fill="#2b2c2d" d="m328 16 5 1 1 3 1-4 4 1 5-1v13l-5 1-2-6-2 3-1 3h-4v-9h-3Z"/><path fill="#ececec" d="M311 65h1v9l-6 5h-7l-3-3v-5l5-4Z"/><path fill="#2a2a2b" d="m237 16 4 1 2 3 1-4 4 1 5-1v13l-4 1-2-3-1-5-3 8-4-1v-8h-3Z"/><path fill="#080808" d="m278 16 9 1 1 1v11l-1 1h-11V18Z"/><path fill="#181819" d="m296 16 5 1v7l4 1v-9h3v13l-4 1-3-3-1 3-6-1v-4l4-1v-3l-4-1v-3Z"/><path fill="#272829" d="m351 16 5 1-1 4 1 3h-3v4h5V16h4v12l-2 2h-10l-1-13Z"/><path fill="#272828" d="M260 16h9v13l-1 1h-5l-1-4 3-1-1-3-6-1 1-4Z"/><path fill="#121313" d="m328 16 5 1v5l3-1-2 9h-4v-9h-3Z"/><path fill="#0e0e0e" d="m237 16 4 1 2 5 2-1-2 9-4-1v-8h-3Z"/><path fill="#111" d="M316 16h3v9l3 1-1 4-5-1Z"/><path fill="#202121" d="m261 8 5 1h5l-2 4-2 1h-6Z"/><path fill="#cdcecf" d="m280 18 5 1v9h-6l1-3 2-1-1-3-2-2Z"/><path fill="#2f2f30" d="m361 7 3 1-1 3h-2l-1 4-4-1 1-5Z"/><path fill="#141415" d="M260 16h5v2l-2 1 2 2h-7l1-4Z"/><path fill="#5e5f61" d="m275 19 6 1 1 2-1 2-3-1-1 7h-1v-8Z"/><path fill="#d5d6d7" d="m356 22 2 1v5h-5v-4h3Z"/><path fill="#4b4c4d" d="m265 16 5 1-3 3-5-1 3-1Z"/></svg>