<svg xmlns="http://www.w3.org/2000/svg" width="913" height="376"><path fill="#0e3d67" d="M0 0h913v376H0Z"/><path fill="#fdfdfd" d="M127 75h126l16 6 10 6 7 6 9 13 4 10 2 7 1 109 69 69v1H126l-16-5-12-7-8-7-7-10-5-10-3-12V125l4-14 6-11 9-10 9-7 13-6Z"/><path fill="#fbfcfc" d="M715 101h20l9 4 8 6 7 11 3 12v14l-3 12-3 6 1 4 8 7-1 4-7 6-4-2-8-8-10 4h-20l-10-3-8-6-6-8-4-10-1-6v-17l4-12 6-8 7-6 8-3Z"/><path fill="#103e68" d="M201 100h46l12 4 10 9 5 8 2 5v50h-42l-1-25-4-6-5-2-23-1Z"/><path fill="#113f68" d="M128 100h47v42l-24 1-6 4-2 4-1 25h-42v-48l4-11 9-10 8-5Z"/><path fill="#0f3e67" d="M100 201h42l1 24 4 6 3 2 25 1v42h-49l-12-6-5-4-6-9-3-10Z"/><path fill="#1ba997" d="m234 201 7 6 68 68v1H201v-42l26-1 5-5 1-3Z"/><path fill="#fcfdfd" d="M779 102h33l10 4 6 5 4 8v10l-4 9-7 6-4 1 14 23 7 11v2h-16l-15-26-4-7-10-1v33h-14Z"/><path fill="#f9fafb" d="M570 207h18l12 32 5 14 2-3 15-40 1-3h18v69h-12l-1-49-16 43h-13l-16-43-1 49h-12Z"/><path fill="#fcfcfc" d="M576 102h12l30 75v3h-15l-6-16h-30l-6 16h-15l1-6Z"/><path fill="#fafafb" d="M472 101h14v33h34v-32h14v78h-14v-32h-35v32h-13Z"/><path fill="#f9f9fa" d="M719 207h13l10 16 18 30 1-46h12v69h-13l-17-28-11-19-1 47h-12Z"/><path fill="#fafafb" d="M467 207h10l5 11 22 55v3h-13l-5-13v-2h-28l-2 9-2 6h-14l3-10 23-57Z"/><path fill="#fdfdfd" d="M397 207h29l9 4 5 5 3 6v9l-3 8-6 5-7 3h-18v29h-12Z"/><path fill="#fbfbfc" d="M658 207h46v11h-33v18h31v11h-31v17h33v12h-46Z"/><path fill="#124069" d="M717 114h13l10 5 4 5 3 7 1 5v11l-3 9h-3l-8-7-4 2-4 4-1 3 4 2 5 6-3 2h-14l-8-4-6-7-3-8v-16l4-9 6-7Z"/><path fill="#f0f0f4" d="M396 101h64v14h-24v66h-15v-66h-25Z"/><path fill="#fcfcfd" d="M497 207h15l8 13 8 14v2h2l2-5 14-24h15l-2 5-17 28-5 8-1 28h-13l-1-27-12-20-13-21Z"/><path fill="#fbfbfc" d="M783 207h55v11h-21v58h-13v-58h-21Z"/><path fill="#eeeff2" d="M629 101h15v80h-15Z"/><path fill="#19446d" d="M793 114h15l6 3 4 5v6l-5 6-2 1h-18Z"/><path fill="#1b466e" d="M409 218h13l6 3 2 2v8l-4 4-4 1h-13Z"/><path fill="#19446d" d="m582 123 2 3 8 22v3h-20l1-5 8-22Z"/><path fill="#1a456d" d="m472 226 2 2 7 20v2h-18l7-20Z"/></svg>