<svg xmlns="http://www.w3.org/2000/svg" width="1217.333" height="501.333" viewBox="0 0 913 376"><g fill="#0a2540"><path d="M0 188v188h913V0H0zM261.7 77.8c13.7 5.1 26.3 15.9 32.6 28 7.3 14 7.1 11.6 7.4 72.2l.4 54.5 34.7 34.8 34.7 34.7-124-.2c-117.3-.3-124.3-.4-129.5-2.2-20.7-6.9-34.8-21-40.9-41-2-6.6-2.1-8.7-2.1-70 0-69.5-.1-68.5 6.3-81.6 4.1-8.4 16.8-21.3 25-25.4 13.4-6.7 11.3-6.5 83.7-6.3l65.5.2zM739.3 103c6.6 2.5 14.5 9.6 17.6 15.7 6.8 13.5 6.7 31.4-.2 45.2l-2.2 4.4 5.3 4.7c2.8 2.5 5.2 5.1 5.2 5.6s-2.1 2.7-4.6 4.8l-4.6 3.9-5.6-5.5-5.7-5.5-3.8 1.9c-14 6.9-32.9 3.8-43.8-7.1-8.4-8.4-10.4-14.2-10.4-30.1 0-10.7.4-13.3 2.3-18.2 4.4-10.8 14.6-19.3 26.2-21.8 6.5-1.3 17.9-.4 24.3 2M460 108v7h-24l-.2 32.7-.3 32.8h-14l-.3-32.7-.2-32.7-12.3-.3-12.2-.3-.3-5.4c-.2-2.9-.1-6 .2-6.7.4-1.1 6.3-1.4 32.1-1.4H460zm25.8 9.7.2 16.3h34v-33.1l7.3.3 7.2.3v79l-7.2.3-7.3.3V148h-34l-.2 16.2-.3 16.3h-14l-.3-38.5c-.1-21.2 0-39.1.3-39.8.3-.9 2.4-1.2 7.2-1l6.8.3zm117.3 23.1c11.2 28 15.4 39.5 14.5 39.8-.7.3-4.2.4-7.7.2l-6.4-.3-3-8.3-3-8.2-15.5.2-15.5.3-2.5 7c-1.4 3.9-2.9 7.6-3.3 8.3-.8 1.2-13.8 1.8-14.9.6-.4-.4 20.3-53.3 29.8-76.2 1.3-3.2 1.5-3.3 6.6-3l5.2.3zm40.4.2v39.5h-14l-.3-38.5c-.1-21.2 0-39.1.3-39.8.3-.9 2.4-1.2 7.2-1l6.8.3zm172.9-37.5c16.4 6 20.9 26.2 8.2 37.3-2 1.7-4 3.2-4.4 3.2-3.7.1-2.9 2.3 6.8 17.8 5.5 8.9 10.3 16.9 10.6 17.7.5 1.3-.7 1.5-7.4 1.5h-8.1l-9.7-17-9.6-17H794l-.2 16.7-.3 16.8-7.2.3-7.3.3v-80.3l16.3.5c12.1.3 17.5.9 21.1 2.2m-382.9 107c14.5 9 11.9 29.8-4.5 35.4-1.9.7-7.2 1.5-11.7 1.8l-8.3.6V276h-13v-69.2l16.3.4c16.2.3 16.4.3 21.2 3.3m57.1 30.5c7.4 18.4 13.4 33.8 13.4 34.3 0 .4-3 .7-6.7.5l-6.7-.3-2.5-7.3-2.6-7.2-13.4.2-13.4.3-2.5 7.2-2.6 7.3h-6.8c-3.7 0-6.8-.2-6.8-.5s6.1-15.8 13.6-34.5l13.6-34.1 5 .3 5 .3zm29.9-19.3c4.4 7.8 8.2 14.3 8.5 14.3s4.3-6.5 8.8-14.5l8.4-14.5h7.5c5.6 0 7.4.3 7 1.2-.2.7-5.9 10.2-12.6 21.1L536 249v27h-13v-26.3l-12.7-20.6c-6.9-11.3-12.8-21-13-21.4-.3-.4 3-.7 7.3-.5l7.9.3zm75.9 9.3c4.9 13.2 9 24 9.2 24 .1 0 4.2-10.8 9-24l8.9-24H641v69h-13l-.2-24-.3-24.1-7.9 21.1-7.8 21h-12.5l-7.9-21.3-7.9-21.2-.3 24.2-.2 24.3h-13v-69h17.5zM705 212.5v5.5h-34v17h31v12h-31v17l16.8.2 16.7.3.3 5.7.3 5.8H658v-69h47zm41.5 18.4 14 23.5.3-23.7.2-23.7h12v69h-12.9l-13.8-23-13.8-23-.3 23-.2 23h-13v-69.1l6.7.3 6.7.3zm92.5-18.4v5.5h-22v58h-13v-58h-22v-11h57z"/><path d="M127.8 101c-10.3 1.8-19.7 9.3-24.7 19.9-2.5 5.5-2.6 6.1-2.9 29.8l-.4 24.3H142v-11.5c0-18.9 2.5-21.5 21.3-21.5H175v-42l-21.2.1c-11.7.1-23.4.5-26 .9m73.2 19.9V142h11.9c10.6 0 12.1.2 15.2 2.3 5.1 3.4 5.9 5.8 5.9 18.9V175h42.1l-.3-24.8-.3-24.7-2.8-5.7c-3.4-7-11.9-14.9-18.4-17.3-3.9-1.5-9.2-1.9-29-2.3l-24.3-.4zm-101 101c0 22.1.8 28.9 4.1 35.8 2.8 5.9 9.4 12.1 15.9 15.2 5.4 2.5 6 2.6 30.3 2.9l24.7.3V234h-25l-3.8-3.4-3.7-3.4-.3-13.1-.4-13.1H100zm615.6-106.5c-6.3 2.3-8.9 4.8-12.1 11.1-2.6 5.3-3 7-3 14.5.1 13.9 5.4 22.6 15.9 26 4.2 1.3 15.2.8 16.8-.8.6-.6-1-2.6-4.1-5.4l-5-4.5 4.4-4.3c4.9-4.8 4.5-4.9 11.7 1.9l3.7 3.4 1.3-2.9c.8-1.8 1.3-7.1 1.3-13.9 0-10.2-.2-11.3-2.8-15.7-3.7-6.4-9.8-9.9-18-10.4-3.9-.3-7.6.1-10.1 1m-133.8 9.2c-.6.9-9.8 25.5-9.8 26.1 0 .2 4.5.3 10.1.3 9.7 0 10-.1 9.4-2-2.9-9-9.3-25.1-9.7-24.4m212.2.4v10h7.8c5.9 0 8.4-.5 11-2 6.1-3.7 6.6-10.8 1-15.5-2.6-2.2-3.8-2.5-11.4-2.5H794zM409 227v8h7.6c10.7 0 13.4-1.6 13.4-8.2 0-5.8-3.3-7.8-13.1-7.8H409zm60.7 5.6c-1.4 3.8-3.5 9.3-4.6 12.1l-1.9 5.3h8.9c4.9 0 8.9-.1 8.9-.3 0-.1-2-5.6-4.4-12.1l-4.3-11.9z"/></g></svg>