<svg xmlns="http://www.w3.org/2000/svg" xmlns:xlink="http://www.w3.org/1999/xlink" viewBox="0 0 600 800" shape-rendering="crispEdges"><defs><symbol id="tqp-header" viewBox="88 75 750 210"><g fill="#0a2540"><path d="M0 188v188h913V0H0zM261.7 77.8c13.7 5.1 26.3 15.9 32.6 28 7.3 14 7.1 11.6 7.4 72.2l.4 54.5 34.7 34.8 34.7 34.7-124-.2c-117.3-.3-124.3-.4-129.5-2.2-20.7-6.9-34.8-21-40.9-41-2-6.6-2.1-8.7-2.1-70 0-69.5-.1-68.5 6.3-81.6 4.1-8.4 16.8-21.3 25-25.4 13.4-6.7 11.3-6.5 83.7-6.3l65.5.2zM739.3 103c6.6 2.5 14.5 9.6 17.6 15.7 6.8 13.5 6.7 31.4-.2 45.2l-2.2 4.4 5.3 4.7c2.8 2.5 5.2 5.1 5.2 5.6s-2.1 2.7-4.6 4.8l-4.6 3.9-5.6-5.5-5.7-5.5-3.8 1.9c-14 6.9-32.9 3.8-43.8-7.1-8.4-8.4-10.4-14.2-10.4-30.1 0-10.7.4-13.3 2.3-18.2 4.4-10.8 14.6-19.3 26.2-21.8 6.5-1.3 17.9-.4 24.3 2M460 108v7h-24l-.2 32.7-.3 32.8h-14l-.3-32.7-.2-32.7-12.3-.3-12.2-.3-.3-5.4c-.2-2.9-.1-6 .2-6.7.4-1.1 6.3-1.4 32.1-1.4H460zm25.8 9.7.2 16.3h34v-33.1l7.3.3 7.2.3v79l-7.2.3-7.3.3V148h-34l-.2 16.2-.3 16.3h-14l-.3-38.5c-.1-21.2 0-39.1.3-39.8.3-.9 2.4-1.2 7.2-1l6.8.3zm117.3 23.1c11.2 28 15.4 39.5 14.5 39.8-.7.3-4.2.4-7.7.2l-6.4-.3-3-8.3-3-8.2-15.5.2-15.5.3-2.5 7c-1.4 3.9-2.9 7.6-3.3 8.3-.8 1.2-13.8 1.8-14.9.6-.4-.4 20.3-53.3 29.8-76.2 1.3-3.2 1.5-3.3 6.6-3l5.2.3zm40.4.2v39.5h-14l-.3-38.5c-.1-21.2 0-39.1.3-39.8.3-.9 2.4-1.2 7.2-1l6.8.3zm172.9-37.5c16.4 6 20.9 26.2 8.2 37.3-2 1.7-4 3.2-4.4 3.2-3.7.1-2.9 2.3 6.8 17.8 5.5 8.9 10.3 16.9 10.6 17.7.5 1.3-.7 1.5-7.4 1.5h-8.1l-9.7-17-9.6-17H794l-.2 16.7-.3 16.8-7.2.3-7.3.3v-80.3l16.3.5c12.1.3 17.5.9 21.1 2.2m-382.9 107c14.5 9 11.9 29.8-4.5 35.4-1.9.7-7.2 1.5-11.7 1.8l-8.3.6V276h-13v-69.2l16.3.4c16.2.3 16.4.3 21.2 3.3m57.1 30.5c7.4 18.4 13.4 33.8 13.4 34.3 0 .4-3 .7-6.7.5l-6.7-.3-2.5-7.3-2.6-7.2-13.4.2-13.4.3-2.5 7.2-2.6 7.3h-6.8c-3.7 0-6.8-.2-6.8-.5s6.1-15.8 13.6-34.5l13.6-34.1 5 .3 5 .3zm29.9-19.3c4.4 7.8 8.2 14.3 8.5 14.3s4.3-6.5 8.8-14.5l8.4-14.5h7.5c5.6 0 7.4.3 7 1.2-.2.7-5.9 10.2-12.6 21.1L536 249v27h-13v-26.3l-12.7-20.6c-6.9-11.3-12.8-21-13-21.4-.3-.4 3-.7 7.3-.5l7.9.3zm75.9 9.3c4.9 13.2 9 24 9.2 24 .1 0 4.2-10.8 9-24l8.9-24H641v69h-13l-.2-24-.3-24.1-7.9 21.1-7.8 21h-12.5l-7.9-21.3-7.9-21.2-.3 24.2-.2 24.3h-13v-69h17.5zM705 212.5v5.5h-34v17h31v12h-31v17l16.8.2 16.7.3.3 5.7.3 5.8H658v-69h47zm41.5 18.4 14 23.5.3-23.7.2-23.7h12v69h-12.9l-13.8-23-13.8-23-.3 23-.2 23h-13v-69.1l6.7.3 6.7.3zm92.5-18.4v5.5h-22v58h-13v-58h-22v-11h57z"/><path d="M127.8 101c-10.3 1.8-19.7 9.3-24.7 19.9-2.5 5.5-2.6 6.1-2.9 29.8l-.4 24.3H142v-11.5c0-18.9 2.5-21.5 21.3-21.5H175v-42l-21.2.1c-11.7.1-23.4.5-26 .9m73.2 19.9V142h11.9c10.6 0 12.1.2 15.2 2.3 5.1 3.4 5.9 5.8 5.9 18.9V175h42.1l-.3-24.8-.3-24.7-2.8-5.7c-3.4-7-11.9-14.9-18.4-17.3-3.9-1.5-9.2-1.9-29-2.3l-24.3-.4zm-101 101c0 22.1.8 28.9 4.1 35.8 2.8 5.9 9.4 12.1 15.9 15.2 5.4 2.5 6 2.6 30.3 2.9l24.7.3V234h-25l-3.8-3.4-3.7-3.4-.3-13.1-.4-13.1H100zm615.6-106.5c-6.3 2.3-8.9 4.8-12.1 11.1-2.6 5.3-3 7-3 14.5.1 13.9 5.4 22.6 15.9 26 4.2 1.3 15.2.8 16.8-.8.6-.6-1-2.6-4.1-5.4l-5-4.5 4.4-4.3c4.9-4.8 4.5-4.9 11.7 1.9l3.7 3.4 1.3-2.9c.8-1.8 1.3-7.1 1.3-13.9 0-10.2-.2-11.3-2.8-15.7-3.7-6.4-9.8-9.9-18-10.4-3.9-.3-7.6.1-10.1 1m-133.8 9.2c-.6.9-9.8 25.5-9.8 26.1 0 .2 4.5.3 10.1.3 9.7 0 10-.1 9.4-2-2.9-9-9.3-25.1-9.7-24.4m212.2.4v10h7.8c5.9 0 8.4-.5 11-2 6.1-3.7 6.6-10.8 1-15.5-2.6-2.2-3.8-2.5-11.4-2.5H794zM409 227v8h7.6c10.7 0 13.4-1.6 13.4-8.2 0-5.8-3.3-7.8-13.1-7.8H409zm60.7 5.6c-1.4 3.8-3.5 9.3-4.6 12.1l-1.9 5.3h8.9c4.9 0 8.9-.1 8.9-.3 0-.1-2-5.6-4.4-12.1l-4.3-11.9z"/></g></symbol><symbol id="tqp-icon" viewBox="0 0 325 376"><g fill="#0a2540"><path d="M0 188v188h913V0H0zM261.7 77.8c13.7 5.1 26.3 15.9 32.6 28 7.3 14 7.1 11.6 7.4 72.2l.4 54.5 34.7 34.8 34.7 34.7-124-.2c-117.3-.3-124.3-.4-129.5-2.2-20.7-6.9-34.8-21-40.9-41-2-6.6-2.1-8.7-2.1-70 0-69.5-.1-68.5 6.3-81.6 4.1-8.4 16.8-21.3 25-25.4 13.4-6.7 11.3-6.5 83.7-6.3l65.5.2zM739.3 103c6.6 2.5 14.5 9.6 17.6 15.7 6.8 13.5 6.7 31.4-.2 45.2l-2.2 4.4 5.3 4.7c2.8 2.5 5.2 5.1 5.2 5.6s-2.1 2.7-4.6 4.8l-4.6 3.9-5.6-5.5-5.7-5.5-3.8 1.9c-14 6.9-32.9 3.8-43.8-7.1-8.4-8.4-10.4-14.2-10.4-30.1 0-10.7.4-13.3 2.3-18.2 4.4-10.8 14.6-19.3 26.2-21.8 6.5-1.3 17.9-.4 24.3 2M460 108v7h-24l-.2 32.7-.3 32.8h-14l-.3-32.7-.2-32.7-12.3-.3-12.2-.3-.3-5.4c-.2-2.9-.1-6 .2-6.7.4-1.1 6.3-1.4 32.1-1.4H460zm25.8 9.7.2 16.3h34v-33.1l7.3.3 7.2.3v79l-7.2.3-7.3.3V148h-34l-.2 16.2-.3 16.3h-14l-.3-38.5c-.1-21.2 0-39.1.3-39.8.3-.9 2.4-1.2 7.2-1l6.8.3zm117.3 23.1c11.2 28 15.4 39.5 14.5 39.8-.7.3-4.2.4-7.7.2l-6.4-.3-3-8.3-3-8.2-15.5.2-15.5.3-2.5 7c-1.4 3.9-2.9 7.6-3.3 8.3-.8 1.2-13.8 1.8-14.9.6-.4-.4 20.3-53.3 29.8-76.2 1.3-3.2 1.5-3.3 6.6-3l5.2.3zm40.4.2v39.5h-14l-.3-38.5c-.1-21.2 0-39.1.3-39.8.3-.9 2.4-1.2 7.2-1l6.8.3zm172.9-37.5c16.4 6 20.9 26.2 8.2 37.3-2 1.7-4 3.2-4.4 3.2-3.7.1-2.9 2.3 6.8 17.8 5.5 8.9 10.3 16.9 10.6 17.7.5 1.3-.7 1.5-7.4 1.5h-8.1l-9.7-17-9.6-17H794l-.2 16.7-.3 16.8-7.2.3-7.3.3v-80.3l16.3.5c12.1.3 17.5.9 21.1 2.2m-382.9 107c14.5 9 11.9 29.8-4.5 35.4-1.9.7-7.2 1.5-11.7 1.8l-8.3.6V276h-13v-69.2l16.3.4c16.2.3 16.4.3 21.2 3.3m57.1 30.5c7.4 18.4 13.4 33.8 13.4 34.3 0 .4-3 .7-6.7.5l-6.7-.3-2.5-7.3-2.6-7.2-13.4.2-13.4.3-2.5 7.2-2.6 7.3h-6.8c-3.7 0-6.8-.2-6.8-.5s6.1-15.8 13.6-34.5l13.6-34.1 5 .3 5 .3zm29.9-19.3c4.4 7.8 8.2 14.3 8.5 14.3s4.3-6.5 8.8-14.5l8.4-14.5h7.5c5.6 0 7.4.3 7 1.2-.2.7-5.9 10.2-12.6 21.1L536 249v27h-13v-26.3l-12.7-20.6c-6.9-11.3-12.8-21-13-21.4-.3-.4 3-.7 7.3-.5l7.9.3zm75.9 9.3c4.9 13.2 9 24 9.2 24 .1 0 4.2-10.8 9-24l8.9-24H641v69h-13l-.2-24-.3-24.1-7.9 21.1-7.8 21h-12.5l-7.9-21.3-7.9-21.2-.3 24.2-.2 24.3h-13v-69h17.5zM705 212.5v5.5h-34v17h31v12h-31v17l16.8.2 16.7.3.3 5.7.3 5.8H658v-69h47zm41.5 18.4 14 23.5.3-23.7.2-23.7h12v69h-12.9l-13.8-23-13.8-23-.3 23-.2 23h-13v-69.1l6.7.3 6.7.3zm92.5-18.4v5.5h-22v58h-13v-58h-22v-11h57z"/><path d="M127.8 101c-10.3 1.8-19.7 9.3-24.7 19.9-2.5 5.5-2.6 6.1-2.9 29.8l-.4 24.3H142v-11.5c0-18.9 2.5-21.5 21.3-21.5H175v-42l-21.2.1c-11.7.1-23.4.5-26 .9m73.2 19.9V142h11.9c10.6 0 12.1.2 15.2 2.3 5.1 3.4 5.9 5.8 5.9 18.9V175h42.1l-.3-24.8-.3-24.7-2.8-5.7c-3.4-7-11.9-14.9-18.4-17.3-3.9-1.5-9.2-1.9-29-2.3l-24.3-.4zm-101 101c0 22.1.8 28.9 4.1 35.8 2.8 5.9 9.4 12.1 15.9 15.2 5.4 2.5 6 2.6 30.3 2.9l24.7.3V234h-25l-3.8-3.4-3.7-3.4-.3-13.1-.4-13.1H100zm615.6-106.5c-6.3 2.3-8.9 4.8-12.1 11.1-2.6 5.3-3 7-3 14.5.1 13.9 5.4 22.6 15.9 26 4.2 1.3 15.2.8 16.8-.8.6-.6-1-2.6-4.1-5.4l-5-4.5 4.4-4.3c4.9-4.8 4.5-4.9 11.7 1.9l3.7 3.4 1.3-2.9c.8-1.8 1.3-7.1 1.3-13.9 0-10.2-.2-11.3-2.8-15.7-3.7-6.4-9.8-9.9-18-10.4-3.9-.3-7.6.1-10.1 1m-133.8 9.2c-.6.9-9.8 25.5-9.8 26.1 0 .2 4.5.3 10.1.3 9.7 0 10-.1 9.4-2-2.9-9-9.3-25.1-9.7-24.4m212.2.4v10h7.8c5.9 0 8.4-.5 11-2 6.1-3.7 6.6-10.8 1-15.5-2.6-2.2-3.8-2.5-11.4-2.5H794zM409 227v8h7.6c10.7 0 13.4-1.6 13.4-8.2 0-5.8-3.3-7.8-13.1-7.8H409zm60.7 5.6c-1.4 3.8-3.5 9.3-4.6 12.1l-1.9 5.3h8.9c4.9 0 8.9-.1 8.9-.3 0-.1-2-5.6-4.4-12.1l-4.3-11.9z"/></g></symbol><symbol id="tqp-promptpay" viewBox="0 0 383.015 129.005"><g fill="#0a2540"><path d="m.215 64.2.3 64.3 191.3.3 191.2.2V0h-383zm378.6 0 .2 59.8h-374V4l186.8.2 186.7.3z"/><path d="M358.815 8.7c-4.1 2.1-3.5 7.3.6 5.7.9-.3 1.6-1.1 1.6-1.7s.7-1.8 1.5-2.7c2.2-2.4-.1-3.1-3.7-1.3m-97.7.6c-.6.8-.7 1.7-.3 2.1s.7 1.3.7 1.9c.1 2.6 9.5-.8 9.5-3.3 0-1.4-2.7-1.3-3.6.1-.5.8-1 .6-1.6-.5-1.1-1.9-3.2-2.1-4.7-.3m-24.4 7.3c-1.3 1.3-.7 4.4.7 4.4q1.5 0 1.8 4.2c.4 6.1 3.1 6.4 5.1.6.9-2.8 1.7-3.8 2.1-2.8.3.8 1 2.8 1.6 4.3.7 1.9 1.6 2.7 2.8 2.5 1.4-.3 1.7-1.4 1.7-6.7q0-6.45-1.2-6.9c-.9-.2-1.3.8-1.4 3l-.1 3.3-1.4-3.3c-.8-1.7-1.9-3.2-2.5-3.2-.5 0-1.5 1.5-2.2 3.2l-1.1 3.3-.6-3c-.5-2.9-3.6-4.6-5.3-2.9m22.9.9c-2.3 2.4-2 3.5 1.2 3.5 4.2 0 5.8 2 3.2 4-2.9 2.2-1.7 5.2 1.9 4.8 1.9-.2 2.7-1 2.9-2.7.6-4.3-.6-6.8-4-7.8l-3.3-1.1 3.5.2c4.9.2 5.1-1.8.2-2.2-2.6-.2-4.5.3-5.6 1.3m17.3.5c-2.1 1.6-2.1 1.9-.6 2 1.4 0 1.6.4.7 1.9-.5 1.1-1 3.4-1 5.1v3.1l5.8-.3 5.7-.3.3-5.5c.3-4.3-.1-5.7-1.4-6.7-2.6-1.9-6.8-1.6-9.5.7m6.9 1.2c.7.7 1.2 2.7 1.2 4.5 0 3.5-1.7 5-4.6 3.9-1.4-.5-1.3-.9.7-2.4 2.3-1.9 1.9-4.2-.7-4.2-1.7 0-1.9-1.6-.1-2.3 1.9-.8 2.2-.8 3.5.5m11.1-1.6c-1.1 1.4-.9 1.9 1.1 3.4l2.4 1.8-2.4 2c-2.1 1.7-2.2 2.2-1.1 3.6 1.8 2.1 4.7 2 6-.2 1-1.6 1.2-1.6 2.6.2.8 1.1 2.1 1.6 3 1.3 2.2-.9 2.2-13.7 0-13.7-1.1 0-1.5 1.2-1.5 4.6 0 3.8-.3 4.5-1.6 4-.9-.3-1.8-.6-2-.6s-.4-1.3-.4-2.8c0-4.7-3.5-6.8-6.1-3.6m21.3 5.1c.3 6.2.5 6.8 2.6 7.1 2.9.4 4.2-2.6 1.9-4.3-1.1-.8-1.7-2.7-1.7-5.4 0-3-.4-4.1-1.5-4.1-1.3 0-1.5 1.2-1.3 6.7m11.5-6.1c-1.3 1.3-.7 4.4.7 4.4q1.5 0 1.8 4.2c.4 6 3.2 6.5 4.9.9 1.4-4.7 2.5-4.5 3.5.5.5 2.8 1 3.5 2.8 3.2 1.9-.3 2.1-.9 2.1-6.7 0-7-2.1-9.9-2.7-3.9l-.4 3.3-1.3-3.3c-.7-1.7-1.7-3.2-2.2-3.2-.6 0-1.5 1.5-2.2 3.2l-1.1 3.3-.6-3c-.5-2.9-3.6-4.6-5.3-2.9"/><path d="M350.215 17.3c-.7.8-.9 3.5-.5 7l.6 5.7h4.8c5.8 0 7.2-1.7 6.7-8.7-.4-6.5-2.8-7-2.8-.6 0 5.2-1.2 7.3-4.2 7.3-2.3 0-2.3-2.6 0-4 1.2-.8 1.4-1.3.4-1.7s-1-.8-.1-1.9.9-1.8-.1-2.9c-1.5-1.8-3.4-1.9-4.8-.2M23.015 64v29h208V35h-208zm35.3-20.6c7.2 3 9.7 10.4 5.5 16.6-3.4 5-6.1 6-16 6h-8.8v17h-6l.2-16.3.3-16.2 2.8-.3c2.7-.3 2.7-.2 2.7 5.2V61h8.5c9.6 0 12.5-1.6 12.5-6.8 0-5.8-3.1-7.2-16.4-7.2-9.6 0-10.6-.2-10.6-1.8 0-1 .3-2.2.7-2.5 1.2-1.3 21.3-.7 24.6.7m155.7 5.6c0 3.6.3 4 2.5 4 2 0 2.5.5 2.5 2.5s-.5 2.5-2.5 2.5h-2.5v10c0 9.7.1 10.1 2.5 11.2 3.7 1.7 3.3 4.8-.7 4.8-5.9 0-6.8-1.9-6.8-14.7 0-10.6-.1-11.3-2-11.3-1.5 0-2-.7-2-2.5s.5-2.5 2-2.5c1.7 0 2-.7 2-4 0-3.6.3-4 2.5-4 2.3 0 2.5.4 2.5 4m-140 6.6v2.6l3.1-2.6c4.1-3.5 7.9-3.5 7.9-.1 0 2-.5 2.5-2.4 2.5-1.3 0-3.5.9-5 2.1-2.5 2-2.6 2.4-2.6 12.5V83h-6V68.7c0-7.9.3-14.7.7-15 .3-.4 1.5-.7 2.5-.7 1.3 0 1.8.7 1.8 2.6m38.1 1.1c6.8 6.8 5.5 20.6-2.5 25.8-3.3 2.2-11.3 2.2-15.4.1-6.1-3.2-8.8-12.8-5.7-20.3 3.2-7.5 6.3-9.4 14.8-9 4.9.3 6.3.8 8.8 3.4m15.9-1.7c0 1.1.3 2 .6 2s1.7-.9 3.1-2c3.4-2.6 9.2-2.6 12.7.1l2.6 2 2.6-2c4.1-3.2 9.8-2.8 13.5.8 2.9 2.9 2.9 3 2.9 15V83h-2.5c-2.5 0-2.5 0-2.5-9.9 0-11.2-.9-14.6-4-15.6-3-.9-7.5 1.2-8.9 4.1-.6 1.4-1.1 6.7-1.1 11.9 0 9.5 0 9.5-2.5 9.5h-2.5V71.6c0-13.1-1-15.3-6.3-14.2-6 1.2-6.7 2.8-6.7 14.8V83h-6V68.7c0-7.9.3-14.7.7-15 1.5-1.5 4.3-.7 4.3 1.3m67-.3c5.8 3.9 7.8 10.1 6 18-1.6 7.1-6.2 11.3-12.6 11.3-2.4 0-5.6-.7-6.9-1.6l-2.5-1.6v4.1c0 3.7-.2 4.1-2.5 4.1h-2.5V54h2.5c1.6 0 2.5.6 2.5 1.6 0 1.3.5 1.2 2.6-.5 3.3-2.6 10-2.8 13.4-.4"/><path d="M96.915 58.3c-2.7 2.1-3.9 5.4-3.9 11.2 0 7.2 2.8 10.5 8.9 10.5 6 0 9.1-4.1 9.1-12.1 0-7-3.2-10.8-9-10.8-1.9 0-4.2.5-5.1 1.2m86.3-.6c-2.3.9-4.2 6.2-4.2 11.8 0 4.6.4 6 2.5 8 4.1 4.2 10.5 3.1 13.3-2.2 1.5-2.8 1.5-10.5.1-13.6-1.7-3.8-7.5-5.7-11.7-4m52.8 6.3v29h13V72.2l10.8-.3c9-.4 11.3-.8 14.4-2.7 5-3.1 7.2-8.9 6.6-17.6-.5-7.8-2.5-11.1-8.8-14.4-4-2-5.8-2.2-20.2-2.2h-15.8zm30.7-16.7q1.8 1.8 1.8 6.3c0 6.7-2.5 8.4-12.1 8.4h-7.4V44.8l8 .4c5.9.2 8.4.8 9.7 2.1m27.4-3.5c-4.2 2.1-6.9 5.6-7.7 9.9l-.6 3.3h5.6c5.1 0 5.7-.2 6.6-2.5 1.5-4 11.1-4.9 13.4-1.2 2.1 3.3-.4 5.1-9 6.5-13.4 2.3-17.4 5.5-17.4 14.2 0 2.3.7 5.4 1.5 6.9 3.3 6.5 14.6 7.9 22.4 2.8l4-2.6.3 2.2c.3 2 1 2.2 6.6 2.5 5 .2 6.2 0 6.2-1.2 0-.8-.4-1.8-1-2.1-.6-.4-1-6.5-1-15.1 0-17.6-.9-20.6-7.2-23.4-5.7-2.6-17.9-2.7-22.7-.2m16.5 30.7c-2.1 3.1-8.5 5.2-11.4 3.6-5.2-2.8-3-9.5 3.5-10.6 2.1-.4 4.9-1 6.3-1.4 2.3-.7 2.5-.5 2.8 2.6.2 2-.4 4.5-1.2 5.8m17.4-31.5c0 .7 2.5 9.1 5.5 18.7l5.6 17.6-1.9 6.8-1.9 6.9h12.2l6.8-24.8c3.7-13.6 6.7-25.1 6.7-25.5s-2.7-.7-5.9-.7h-5.9l-1.8 7c-1 3.8-2.1 7-2.5 7-.3 0-1.5-3-2.5-6.8l-2-6.7-6.2-.3c-4.1-.2-6.2.1-6.2.8"/></g></symbol></defs><rect width="600" height="800" fill="#ffffff" rx="20"/><path d="M0 110 V20 a20 20 0 0 1 20 -20 H580 a20 20 0 0 1 20 20 V110 Z" fill="#00427A"/><use href="#tqp-header" xlink:href="#tqp-header" x="195" y="15" width="210" height="80" preserveAspectRatio="xMidYMid meet"/><use href="#tqp-promptpay" xlink:href="#tqp-promptpay" x="170" y="140" width="260" height="88" preserveAspectRatio="xMidYMid meet"/><rect x="50" y="250" width="500" height="500" fill="#ffffff" rx="6"/><g transform="translate(64 264) scale(14.303030303030303)"><path d="M0 0h7v1h-7zM8 0h1v1h-1zM10 0h2v1h-2zM13 0h3v1h-3zM18 0h3v1h-3zM23 0h1v1h-1zM26 0h7v1h-7zM0 1h1v1h-1zM6 1h1v1h-1zM9 1h1v1h-1zM12 1h3v1h-3zM18 1h4v1h-4zM24 1h1v1h-1zM26 1h1v1h-1zM32 1h1v1h-1zM0 2h1v1h-1zM2 2h3v1h-3zM6 2h1v1h-1zM9 2h1v1h-1zM11 2h1v1h-1zM14 2h5v1h-5zM22 2h2v1h-2zM26 2h1v1h-1zM28 2h3v1h-3zM32 2h1v1h-1zM0 3h1v1h-1zM2 3h3v1h-3zM6 3h1v1h-1zM8 3h1v1h-1zM10 3h1v1h-1zM12 3h1v1h-1zM15 3h3v1h-3zM19 3h1v1h-1zM22 3h3v1h-3zM26 3h1v1h-1zM28 3h3v1h-3zM32 3h1v1h-1zM0 4h1v1h-1zM2 4h3v1h-3zM6 4h1v1h-1zM8 4h1v1h-1zM11 4h3v1h-3zM16 4h1v1h-1zM19 4h1v1h-1zM26 4h1v1h-1zM28 4h3v1h-3zM32 4h1v1h-1zM0 5h1v1h-1zM6 5h1v1h-1zM8 5h2v1h-2zM11 5h2v1h-2zM14 5h2v1h-2zM18 5h1v1h-1zM20 5h3v1h-3zM26 5h1v1h-1zM32 5h1v1h-1zM0 6h7v1h-7zM8 6h1v1h-1zM10 6h1v1h-1zM12 6h1v1h-1zM14 6h1v1h-1zM16 6h1v1h-1zM18 6h1v1h-1zM20 6h1v1h-1zM22 6h1v1h-1zM24 6h1v1h-1zM26 6h7v1h-7zM8 7h2v1h-2zM12 7h2v1h-2zM19 7h5v1h-5zM0 8h1v1h-1zM4 8h1v1h-1zM6 8h3v1h-3zM10 8h2v1h-2zM13 8h3v1h-3zM18 8h1v1h-1zM20 8h3v1h-3zM24 8h6v1h-6zM32 8h1v1h-1zM0 9h1v1h-1zM2 9h4v1h-4zM8 9h1v1h-1zM10 9h1v1h-1zM12 9h1v1h-1zM14 9h1v1h-1zM17 9h4v1h-4zM22 9h1v1h-1zM24 9h3v1h-3zM30 9h3v1h-3zM5 10h2v1h-2zM8 10h1v1h-1zM13 10h4v1h-4zM18 10h1v1h-1zM20 10h1v1h-1zM22 10h2v1h-2zM26 10h2v1h-2zM29 10h1v1h-1zM32 10h1v1h-1zM3 11h1v1h-1zM5 11h1v1h-1zM8 11h3v1h-3zM13 11h1v1h-1zM15 11h2v1h-2zM20 11h4v1h-4zM27 11h3v1h-3zM32 11h1v1h-1zM3 12h4v1h-4zM8 12h1v1h-1zM13 12h1v1h-1zM16 12h1v1h-1zM19 12h3v1h-3zM24 12h2v1h-2zM27 12h2v1h-2zM30 12h1v1h-1zM0 13h1v1h-1zM5 13h1v1h-1zM7 13h2v1h-2zM10 13h1v1h-1zM13 13h2v1h-2zM18 13h3v1h-3zM24 13h3v1h-3zM31 13h2v1h-2zM1 14h2v1h-2zM5 14h3v1h-3zM11 14h1v1h-1zM13 14h3v1h-3zM17 14h1v1h-1zM20 14h4v1h-4zM25 14h1v1h-1zM27 14h2v1h-2zM30 14h1v1h-1zM0 15h1v1h-1zM2 15h2v1h-2zM8 15h1v1h-1zM14 15h4v1h-4zM20 15h1v1h-1zM22 15h4v1h-4zM28 15h3v1h-3zM0 16h1v1h-1zM2 16h2v1h-2zM6 16h2v1h-2zM9 16h2v1h-2zM12 16h3v1h-3zM18 16h3v1h-3zM24 16h1v1h-1zM29 16h4v1h-4zM0 17h1v1h-1zM4 17h2v1h-2zM7 17h3v1h-3zM12 17h1v1h-1zM14 17h1v1h-1zM19 17h1v1h-1zM24 17h3v1h-3zM29 17h3v1h-3zM0 18h2v1h-2zM3 18h2v1h-2zM6 18h3v1h-3zM13 18h2v1h-2zM17 18h1v1h-1zM19 18h1v1h-1zM22 18h8v1h-8zM3 19h2v1h-2zM8 19h3v1h-3zM15 19h4v1h-4zM21 19h2v1h-2zM24 19h1v1h-1zM26 19h2v1h-2zM29 19h1v1h-1zM0 20h5v1h-5zM6 20h2v1h-2zM10 20h1v1h-1zM12 20h1v1h-1zM14 20h1v1h-1zM18 20h2v1h-2zM24 20h3v1h-3zM30 20h1v1h-1zM32 20h1v1h-1zM0 21h5v1h-5zM7 21h2v1h-2zM10 21h1v1h-1zM13 21h2v1h-2zM16 21h1v1h-1zM19 21h2v1h-2zM23 21h3v1h-3zM27 21h1v1h-1zM30 21h3v1h-3zM4 22h3v1h-3zM8 22h5v1h-5zM14 22h1v1h-1zM16 22h2v1h-2zM19 22h1v1h-1zM21 22h2v1h-2zM24 22h1v1h-1zM29 22h2v1h-2zM2 23h3v1h-3zM8 23h1v1h-1zM10 23h1v1h-1zM14 23h1v1h-1zM17 23h1v1h-1zM21 23h2v1h-2zM25 23h1v1h-1zM27 23h1v1h-1zM29 23h1v1h-1zM31 23h1v1h-1zM0 24h2v1h-2zM3 24h1v1h-1zM5 24h4v1h-4zM13 24h3v1h-3zM19 24h2v1h-2zM24 24h5v1h-5zM32 24h1v1h-1zM8 25h1v1h-1zM10 25h2v1h-2zM14 25h1v1h-1zM16 25h2v1h-2zM19 25h2v1h-2zM24 25h1v1h-1zM28 25h1v1h-1zM30 25h2v1h-2zM0 26h7v1h-7zM8 26h1v1h-1zM10 26h2v1h-2zM14 26h3v1h-3zM18 26h1v1h-1zM21 26h4v1h-4zM26 26h1v1h-1zM28 26h2v1h-2zM32 26h1v1h-1zM0 27h1v1h-1zM6 27h1v1h-1zM10 27h1v1h-1zM13 27h4v1h-4zM21 27h1v1h-1zM24 27h1v1h-1zM28 27h1v1h-1zM31 27h1v1h-1zM0 28h1v1h-1zM2 28h3v1h-3zM6 28h1v1h-1zM8 28h2v1h-2zM12 28h1v1h-1zM16 28h1v1h-1zM19 28h1v1h-1zM24 28h5v1h-5zM30 28h1v1h-1zM32 28h1v1h-1zM0 29h1v1h-1zM2 29h3v1h-3zM6 29h1v1h-1zM9 29h1v1h-1zM11 29h2v1h-2zM14 29h1v1h-1zM17 29h3v1h-3zM24 29h2v1h-2zM31 29h1v1h-1zM0 30h1v1h-1zM2 30h3v1h-3zM6 30h1v1h-1zM9 30h2v1h-2zM15 30h1v1h-1zM17 30h2v1h-2zM20 30h3v1h-3zM24 30h1v1h-1zM27 30h4v1h-4zM0 31h1v1h-1zM6 31h1v1h-1zM10 31h2v1h-2zM13 31h5v1h-5zM19 31h1v1h-1zM21 31h3v1h-3zM27 31h2v1h-2zM32 31h1v1h-1zM0 32h7v1h-7zM8 32h3v1h-3zM13 32h2v1h-2zM18 32h1v1h-1zM20 32h1v1h-1zM23 32h3v1h-3zM29 32h4v1h-4z" fill="#000000"/></g></svg>