<svg xmlns="http://www.w3.org/2000/svg" viewBox="0 0 41 41" width="320" height="320" shape-rendering="crispEdges"><rect width="41" height="41" fill="#fff"/><g transform="translate(4 4)"><path d="M0 0h7v1h-7zM8 0h1v1h-1zM10 0h2v1h-2zM13 0h3v1h-3zM18 0h3v1h-3zM23 0h1v1h-1zM26 0h7v1h-7zM0 1h1v1h-1zM6 1h1v1h-1zM9 1h1v1h-1zM12 1h3v1h-3zM18 1h4v1h-4zM24 1h1v1h-1zM26 1h1v1h-1zM32 1h1v1h-1zM0 2h1v1h-1zM2 2h3v1h-3zM6 2h1v1h-1zM9 2h1v1h-1zM11 2h1v1h-1zM14 2h5v1h-5zM22 2h2v1h-2zM26 2h1v1h-1zM28 2h3v1h-3zM32 2h1v1h-1zM0 3h1v1h-1zM2 3h3v1h-3zM6 3h1v1h-1zM8 3h1v1h-1zM10 3h1v1h-1zM12 3h1v1h-1zM15 3h3v1h-3zM19 3h1v1h-1zM22 3h3v1h-3zM26 3h1v1h-1zM28 3h3v1h-3zM32 3h1v1h-1zM0 4h1v1h-1zM2 4h3v1h-3zM6 4h1v1h-1zM8 4h1v1h-1zM11 4h3v1h-3zM16 4h1v1h-1zM19 4h1v1h-1zM26 4h1v1h-1zM28 4h3v1h-3zM32 4h1v1h-1zM0 5h1v1h-1zM6 5h1v1h-1zM8 5h2v1h-2zM11 5h2v1h-2zM14 5h2v1h-2zM18 5h1v1h-1zM20 5h3v1h-3zM26 5h1v1h-1zM32 5h1v1h-1zM0 6h7v1h-7zM8 6h1v1h-1zM10 6h1v1h-1zM12 6h1v1h-1zM14 6h1v1h-1zM16 6h1v1h-1zM18 6h1v1h-1zM20 6h1v1h-1zM22 6h1v1h-1zM24 6h1v1h-1zM26 6h7v1h-7zM8 7h2v1h-2zM12 7h2v1h-2zM19 7h5v1h-5zM0 8h1v1h-1zM4 8h1v1h-1zM6 8h3v1h-3zM10 8h2v1h-2zM13 8h3v1h-3zM18 8h1v1h-1zM20 8h3v1h-3zM24 8h6v1h-6zM32 8h1v1h-1zM0 9h1v1h-1zM2 9h4v1h-4zM8 9h1v1h-1zM10 9h1v1h-1zM12 9h1v1h-1zM14 9h1v1h-1zM17 9h4v1h-4zM22 9h1v1h-1zM24 9h3v1h-3zM30 9h3v1h-3zM5 10h2v1h-2zM8 10h1v1h-1zM13 10h4v1h-4zM18 10h1v1h-1zM20 10h1v1h-1zM22 10h2v1h-2zM26 10h2v1h-2zM29 10h1v1h-1zM32 10h1v1h-1zM3 11h1v1h-1zM5 11h1v1h-1zM8 11h3v1h-3zM13 11h1v1h-1zM15 11h2v1h-2zM20 11h4v1h-4zM27 11h3v1h-3zM32 11h1v1h-1zM3 12h4v1h-4zM8 12h1v1h-1zM13 12h1v1h-1zM16 12h1v1h-1zM19 12h3v1h-3zM24 12h2v1h-2zM27 12h2v1h-2zM30 12h1v1h-1zM0 13h1v1h-1zM5 13h1v1h-1zM7 13h2v1h-2zM10 13h1v1h-1zM13 13h2v1h-2zM18 13h3v1h-3zM24 13h3v1h-3zM31 13h2v1h-2zM1 14h2v1h-2zM5 14h3v1h-3zM11 14h1v1h-1zM13 14h3v1h-3zM17 14h1v1h-1zM20 14h4v1h-4zM25 14h1v1h-1zM27 14h2v1h-2zM30 14h1v1h-1zM0 15h1v1h-1zM2 15h2v1h-2zM8 15h1v1h-1zM14 15h4v1h-4zM20 15h1v1h-1zM22 15h4v1h-4zM28 15h3v1h-3zM0 16h1v1h-1zM2 16h2v1h-2zM6 16h2v1h-2zM9 16h2v1h-2zM12 16h3v1h-3zM18 16h3v1h-3zM24 16h1v1h-1zM29 16h4v1h-4zM0 17h1v1h-1zM4 17h2v1h-2zM7 17h3v1h-3zM12 17h1v1h-1zM14 17h1v1h-1zM19 17h1v1h-1zM24 17h3v1h-3zM29 17h3v1h-3zM0 18h2v1h-2zM3 18h2v1h-2zM6 18h3v1h-3zM13 18h2v1h-2zM17 18h1v1h-1zM19 18h1v1h-1zM22 18h8v1h-8zM3 19h2v1h-2zM8 19h3v1h-3zM15 19h4v1h-4zM21 19h2v1h-2zM24 19h1v1h-1zM26 19h2v1h-2zM29 19h1v1h-1zM0 20h5v1h-5zM6 20h2v1h-2zM10 20h1v1h-1zM12 20h1v1h-1zM14 20h1v1h-1zM18 20h2v1h-2zM24 20h3v1h-3zM30 20h1v1h-1zM32 20h1v1h-1zM0 21h5v1h-5zM7 21h2v1h-2zM10 21h1v1h-1zM13 21h2v1h-2zM16 21h1v1h-1zM19 21h2v1h-2zM23 21h3v1h-3zM27 21h1v1h-1zM30 21h3v1h-3zM4 22h3v1h-3zM8 22h5v1h-5zM14 22h1v1h-1zM16 22h2v1h-2zM19 22h1v1h-1zM21 22h2v1h-2zM24 22h1v1h-1zM29 22h2v1h-2zM2 23h3v1h-3zM8 23h1v1h-1zM10 23h1v1h-1zM14 23h1v1h-1zM17 23h1v1h-1zM21 23h2v1h-2zM25 23h1v1h-1zM27 23h1v1h-1zM29 23h1v1h-1zM31 23h1v1h-1zM0 24h2v1h-2zM3 24h1v1h-1zM5 24h4v1h-4zM13 24h3v1h-3zM19 24h2v1h-2zM24 24h5v1h-5zM32 24h1v1h-1zM8 25h1v1h-1zM10 25h2v1h-2zM14 25h1v1h-1zM16 25h2v1h-2zM19 25h2v1h-2zM24 25h1v1h-1zM28 25h1v1h-1zM30 25h2v1h-2zM0 26h7v1h-7zM8 26h1v1h-1zM10 26h2v1h-2zM14 26h3v1h-3zM18 26h1v1h-1zM21 26h4v1h-4zM26 26h1v1h-1zM28 26h2v1h-2zM32 26h1v1h-1zM0 27h1v1h-1zM6 27h1v1h-1zM10 27h1v1h-1zM13 27h4v1h-4zM21 27h1v1h-1zM24 27h1v1h-1zM28 27h1v1h-1zM31 27h1v1h-1zM0 28h1v1h-1zM2 28h3v1h-3zM6 28h1v1h-1zM8 28h2v1h-2zM12 28h1v1h-1zM16 28h1v1h-1zM19 28h1v1h-1zM24 28h5v1h-5zM30 28h1v1h-1zM32 28h1v1h-1zM0 29h1v1h-1zM2 29h3v1h-3zM6 29h1v1h-1zM9 29h1v1h-1zM11 29h2v1h-2zM14 29h1v1h-1zM17 29h3v1h-3zM24 29h2v1h-2zM31 29h1v1h-1zM0 30h1v1h-1zM2 30h3v1h-3zM6 30h1v1h-1zM9 30h2v1h-2zM15 30h1v1h-1zM17 30h2v1h-2zM20 30h3v1h-3zM24 30h1v1h-1zM27 30h4v1h-4zM0 31h1v1h-1zM6 31h1v1h-1zM10 31h2v1h-2zM13 31h5v1h-5zM19 31h1v1h-1zM21 31h3v1h-3zM27 31h2v1h-2zM32 31h1v1h-1zM0 32h7v1h-7zM8 32h3v1h-3zM13 32h2v1h-2zM18 32h1v1h-1zM20 32h1v1h-1zM23 32h3v1h-3zM29 32h4v1h-4z" fill="#000"/></g></svg>